<svg width="1200" height="630" viewBox="0 0 1200 630" fill="none" xmlns="http://www.w3.org/2000/svg">
  <!-- Background -->
  <rect width="1200" height="630" fill="#EFF6FF" />
  
  <!-- Border -->
  <rect x="40" y="40" width="1120" height="550" rx="8" stroke="#3B82F6" stroke-width="2" stroke-dasharray="8 8" />
  
  <!-- VA Stars and Stripes Pattern -->
  <rect x="40" y="40" width="1120" height="150" fill="#FFFFFF" opacity="0.3" />
  <rect x="40" y="190" width="1120" height="60" fill="#1D4ED8" opacity="0.2" />
  <rect x="40" y="250" width="1120" height="60" fill="#FFFFFF" opacity="0.3" />
  <rect x="40" y="310" width="1120" height="60" fill="#1D4ED8" opacity="0.2" />
  <rect x="40" y="370" width="1120" height="60" fill="#FFFFFF" opacity="0.3" />
  <rect x="40" y="430" width="1120" height="60" fill="#1D4ED8" opacity="0.2" />
  
  <!-- Stars in pattern -->
  <circle cx="140" cy="100" r="10" fill="#1D4ED8" opacity="0.5" />
  <circle cx="140" cy="220" r="10" fill="#FFFFFF" opacity="0.5" />
  <circle cx="140" cy="340" r="10" fill="#1D4ED8" opacity="0.5" />
  <circle cx="140" cy="460" r="10" fill="#FFFFFF" opacity="0.5" />
  
  <circle cx="180" cy="100" r="10" fill="#1D4ED8" opacity="0.5" />
  <circle cx="180" cy="220" r="10" fill="#FFFFFF" opacity="0.5" />
  <circle cx="180" cy="340" r="10" fill="#1D4ED8" opacity="0.5" />
  <circle cx="180" cy="460" r="10" fill="#FFFFFF" opacity="0.5" />
  
  <!-- Main Text -->
  <text x="600" y="315" font-family="system-ui, -apple-system, sans-serif" font-size="60" text-anchor="middle" fill="#2563EB" font-weight="bold">COMMUNITY BANNER</text>
  
  <!-- Secondary Text -->
  <text x="600" y="385" font-family="system-ui, -apple-system, sans-serif" font-size="32" text-anchor="middle" fill="#3B82F6">Banner image not available (1200×630)</text>
  
  <!-- Small watermark -->
  <text x="600" y="540" font-family="system-ui, -apple-system, sans-serif" font-size="16" text-anchor="middle" fill="#60A5FA">VA Claims Community</text>
</svg> 